ply
format ascii 1.0
comment Created by Open Asset Import Library - http://assimp.sf.net (v3.2.0)
element vertex 7
property float x
property float y
property float z
property uchar red
property uchar green
property uchar blue
property float a
element face 0
property list uchar int vertex_index
end_header
-0.5665 0.0005 0.898452 250 0 250 1
-0.5665 0.0015 0.897658 250 0 0 1
-0.5675 0.0005 0.898191 250 0 0 1
-0.5675 0.0005 0.898191 250 0 0 1
-0.5665 0.0025 0.896633 250 0 0 1
-0.5675 0.0025 0.896549 250 0 0 1
-0.5675 0.00160304 0.8975 250 0 0 1
